<svg xmlns="http://www.w3.org/2000/svg" width="1800" height="1120" viewBox="0 0 1800 1120">
<style>
.title{font:700 25px Arial;fill:#15233b}.h{font:700 16px Arial;fill:white}.f{font:14px Arial;fill:#172033}.rel{stroke:#7890a8;stroke-width:2;fill:none}.card{fill:#fff;stroke:#7890a8;stroke-width:2}.id{fill:#31699c}.core{fill:#4f833d}.trans{fill:#c7832b}.ai{fill:#8064a2}.n{font:700 13px Arial;fill:#394d68}
</style>
<rect width="1800" height="1120" fill="white"/><text x="900" y="38" text-anchor="middle" class="title">SƠ ĐỒ QUAN HỆ THỰC THỂ (ERD) HỆ THỐNG QUẢN LÝ SALON TÓC TÍCH HỢP AI</text>
<!-- Relationships, with smooth separate curves, are drawn behind cards. -->
<!-- Identity --> <path class="rel" d="M340 135 C380 135 405 135 450 135"/><path class="rel" d="M650 135 C690 135 715 135 760 135"/>
<!-- Main appointment relations --> <path class="rel" d="M350 425 C440 425 505 425 610 425"/><path class="rel" d="M900 405 C970 340 1030 290 1120 285"/><path class="rel" d="M900 445 C980 510 1030 550 1120 560"/><path class="rel" d="M1260 285 C1325 285 1385 285 1460 285"/>
<!-- Invoice --> <path class="rel" d="M755 530 C755 590 755 625 755 695"/><path class="rel" d="M350 445 C425 540 485 650 560 735"/>
<!-- History: each curve has its own route --> <path class="rel" d="M350 445 C370 570 420 695 565 825"/><path class="rel" d="M900 470 C930 590 915 700 850 825"/><path class="rel" d="M1120 580 C1045 665 1000 740 930 825"/><path class="rel" d="M1120 305 C1105 520 1080 690 1010 825"/>
<!-- AI data --> <path class="rel" d="M250 545 C260 695 350 840 540 970"/><path class="rel" d="M350 460 C550 710 730 875 1020 970"/><path class="rel" d="M900 490 C955 680 1060 825 1200 970"/>

<!-- Identity cards -->
<g transform="translate(80,85)"><rect class="card" width="260" height="130"/><rect class="id" width="260" height="35"/><text x="130" y="23" text-anchor="middle" class="h">AspNetUsers</text><text x="14" y="60" class="f">PK  Id</text><text x="14" y="82" class="f">UserName, Email</text><text x="14" y="104" class="f">PasswordHash</text></g>
<g transform="translate(450,85)"><rect class="card" width="200" height="130"/><rect class="id" width="200" height="35"/><text x="100" y="23" text-anchor="middle" class="h">AspNetUserRoles</text><text x="14" y="60" class="f">PK, FK  UserId</text><text x="14" y="82" class="f">PK, FK  RoleId</text></g>
<g transform="translate(760,85)"><rect class="card" width="210" height="130"/><rect class="id" width="210" height="35"/><text x="105" y="23" text-anchor="middle" class="h">AspNetRoles</text><text x="14" y="60" class="f">PK  Id</text><text x="14" y="82" class="f">Name</text></g>
<text x="370" y="128" class="n">1</text><text x="424" y="128" class="n">N</text><text x="675" y="128" class="n">N</text><text x="734" y="128" class="n">1</text>

<!-- Core and transaction cards -->
<g transform="translate(90,330)"><rect class="card" width="260" height="215"/><rect class="core" width="260" height="35"/><text x="130" y="23" text-anchor="middle" class="h">Customers</text><text x="14" y="60" class="f">PK  Id</text><text x="14" y="82" class="f">FullName, Phone (Unique)</text><text x="14" y="104" class="f">Email, Gender</text><text x="14" y="126" class="f">Notes, CreatedAt</text></g>
<g transform="translate(610,320)"><rect class="card" width="290" height="210"/><rect class="trans" width="290" height="35"/><text x="145" y="23" text-anchor="middle" class="h">Appointments</text><text x="14" y="60" class="f">PK  Id</text><text x="14" y="82" class="f">FK  CustomerId, StylistId</text><text x="14" y="104" class="f">FK  ServiceId</text><text x="14" y="126" class="f">AppointmentDate</text><text x="14" y="148" class="f">StartTime, EndTime, Status</text><text x="14" y="170" class="f">CustomerNote, CreatedAt</text></g>
<g transform="translate(1120,210)"><rect class="card" width="260" height="150"/><rect class="core" width="260" height="35"/><text x="130" y="23" text-anchor="middle" class="h">Stylists</text><text x="14" y="60" class="f">PK  Id</text><text x="14" y="82" class="f">FullName, Phone, Email</text><text x="14" y="104" class="f">Specialization, Experience</text><text x="14" y="126" class="f">Status</text></g>
<g transform="translate(1460,210)"><rect class="card" width="250" height="150"/><rect class="core" width="250" height="35"/><text x="125" y="23" text-anchor="middle" class="h">StylistSchedules</text><text x="14" y="60" class="f">PK  Id</text><text x="14" y="82" class="f">FK  StylistId</text><text x="14" y="104" class="f">WorkDate</text><text x="14" y="126" class="f">StartTime, EndTime</text></g>
<g transform="translate(1120,500)"><rect class="card" width="260" height="160"/><rect class="core" width="260" height="35"/><text x="130" y="23" text-anchor="middle" class="h">SalonServices</text><text x="14" y="60" class="f">PK  Id</text><text x="14" y="82" class="f">Name (Unique), Description</text><text x="14" y="104" class="f">Price, DurationMinutes</text><text x="14" y="126" class="f">Status</text></g>
<g transform="translate(560,695)"><rect class="card" width="270" height="155"/><rect class="trans" width="270" height="35"/><text x="135" y="23" text-anchor="middle" class="h">Invoices</text><text x="14" y="60" class="f">PK  Id</text><text x="14" y="82" class="f">FK  AppointmentId (Unique)</text><text x="14" y="104" class="f">FK  CustomerId</text><text x="14" y="126" class="f">TotalAmount, PaymentMethod</text><text x="14" y="148" class="f">PaymentStatus, PaidAt</text></g>
<g transform="translate(565,825)"><rect class="card" width="390" height="165"/><rect class="trans" width="390" height="35"/><text x="195" y="23" text-anchor="middle" class="h">ServiceHistories</text><text x="14" y="60" class="f">PK  Id</text><text x="14" y="82" class="f">FK  CustomerId, AppointmentId</text><text x="14" y="104" class="f">FK  ServiceId, StylistId</text><text x="14" y="126" class="f">ServiceDate, Notes</text><text x="14" y="148" class="f">ResultDescription</text></g>
<!-- AI cards -->
<g transform="translate(540,970)"><rect class="card" width="270" height="125"/><rect class="ai" width="270" height="35"/><text x="135" y="23" text-anchor="middle" class="h">AIRecommendations</text><text x="14" y="60" class="f">PK  Id, FK CustomerId</text><text x="14" y="82" class="f">InputText, Recommendation</text><text x="14" y="104" class="f">CreatedAt</text></g>
<g transform="translate(1020,970)"><rect class="card" width="300" height="125"/><rect class="ai" width="300" height="35"/><text x="150" y="23" text-anchor="middle" class="h">AIGeneratedMessages</text><text x="14" y="60" class="f">PK Id, FK CustomerId</text><text x="14" y="82" class="f">FK AppointmentId (Nullable)</text><text x="14" y="104" class="f">MessageType, GeneratedMessage</text></g>

<!-- Minimal cardinality markers -->
<text x="365" y="414" class="n">1</text><text x="580" y="414" class="n">N</text><text x="915" y="393" class="n">N</text><text x="1095" y="296" class="n">1</text><text x="915" y="455" class="n">N</text><text x="1095" y="548" class="n">1</text><text x="1395" y="275" class="n">1</text><text x="1440" y="275" class="n">N</text>
</svg>
